Coordinates
version=1
nRows=10
nColumns=40
inDegrees=yes

Units are S.I. units (second, meters, Newtons, ...)
If the header above contains a line with 'inDegrees', this indicates whether rotational values are in degrees (yes) or radians (no).

endheader
time	pelvis_tilt	pelvis_list	pelvis_rotation	pelvis_tx	pelvis_ty	pelvis_tz	hip_flexion_r	hip_adduction_r	hip_rotation_r	knee_angle_r	knee_angle_r_beta	ankle_angle_r	subtalar_angle_r	mtp_angle_r	hip_flexion_l	hip_adduction_l	hip_rotation_l	knee_angle_l	knee_angle_l_beta	ankle_angle_l	subtalar_angle_l	mtp_angle_l	lumbar_extension	lumbar_bending	lumbar_rotation	arm_flex_r	arm_add_r	arm_rot_r	elbow_flex_r	pro_sup_r	wrist_flex_r	wrist_dev_r	arm_flex_l	arm_add_l	arm_rot_l	elbow_flex_l	pro_sup_l	wrist_flex_l	wrist_dev_l
     18.00000000	     32.25402234	    -11.93736537	    179.40841373	      0.35606987	      0.64146349	     -0.60547988	    102.56116872	     -5.09174193	     12.22741364	     91.87805147	      1.60357451	     23.92354855	      0.00000000	      0.00000000	     95.20667241	     -7.20480832	    -11.83177662	     90.11917369	      1.57287630	     26.40627597	      0.00000000	      0.00000000	    -35.77955461	    -10.56417579	     -7.23749037	     53.94162616	    -11.21591003	     39.01329310	      9.94149518	      6.27972385	      0.00000000	      0.00000000	     60.48021710	    -18.14990884	     38.10584561	     16.85940964	     87.73384022	      0.00000000	      0.00000000
     18.00500000	     32.26409843	    -11.88784407	    179.34125831	      0.35621728	      0.64174187	     -0.60564161	    102.49863150	     -4.93680892	     12.24306956	     91.77706470	      1.60181196	     23.90479469	      0.00000000	      0.00000000	     95.19438495	     -7.36217291	    -11.87105185	     90.08658787	      1.57230757	     26.38496192	      0.00000000	      0.00000000	    -35.75987277	    -10.55784985	     -7.14138541	     53.94334701	    -11.23011832	     39.00738679	      9.94123449	      6.27172274	      0.00000000	      0.00000000	     60.48756014	    -18.13063437	     38.14415572	     16.86085261	     87.74070858	      0.00000000	      0.00000000
     18.01000000	     32.25305228	    -11.87386878	    179.23402467	      0.35637244	      0.64196938	     -0.60597146	    102.44780336	     -4.78883020	     12.21986666	     91.70992996	      1.60064023	     23.87822481	      0.00000000	      0.00000000	     95.16097462	     -7.51922487	    -11.86912506	     90.07242792	      1.57206043	     26.38533128	      0.00000000	      0.00000000	    -35.75343134	    -10.63383957	     -7.03394662	     53.90720481	    -11.21804815	     39.00561698	      9.93927827	      6.26877658	      0.00000000	      0.00000000	     60.53630240	    -18.13072687	     38.16048050	     16.87410099	     87.74089858	      0.00000000	      0.00000000
     18.01500000	     32.34551107	    -11.87260267	    179.39859561	      0.35671903	      0.64244851	     -0.60538294	    102.50481728	     -5.00688651	     12.22516380	     91.57025881	      1.59820251	     23.83559110	      0.00000000	      0.00000000	     95.19552867	     -7.23685104	    -11.81774413	     89.85908180	      1.56833684	     26.23548059	      0.00000000	      0.00000000	    -35.70845124	    -10.51026144	     -7.14425319	     53.94104331	    -11.27514032	     38.91539897	     10.01653450	      6.26174304	      0.00000000	      0.00000000	     60.58768948	    -18.09169946	     38.34308430	     16.81288872	     87.74358028	      0.00000000	      0.00000000
     18.02000000	     32.35824133	    -11.85026527	    179.40967042	      0.35687961	      0.64267265	     -0.60531989	    102.49293187	     -5.01536378	     12.22268476	     91.52720356	      1.59745106	     23.79082495	      0.00000000	      0.00000000	     95.19758645	     -7.24966178	    -11.81613735	     89.81065065	      1.56749156	     26.21884161	      0.00000000	      0.00000000	    -35.68364322	    -10.48335512	     -7.13662723	     53.93377212	    -11.28063920	     38.85151250	     10.03249907	      6.25058080	      0.00000000	      0.00000000	     60.60397337	    -18.06236733	     38.38349114	     16.77498076	     87.73046706	      0.00000000	      0.00000000
     18.02500000	     32.38180848	    -11.84443335	    179.41764674	      0.35705906	      0.64304917	     -0.60519224	    102.47814626	     -5.02124655	     12.22677917	     91.43904972	      1.59591248	     23.73054709	      0.00000000	      0.00000000	     95.17921466	     -7.22951556	    -11.82792937	     89.71110269	      1.56575412	     26.18726528	      0.00000000	      0.00000000	    -35.66784017	    -10.46663350	     -7.12063337	     53.95047489	    -11.30286158	     38.77642710	     10.04025557	      6.23116436	      0.00000000	      0.00000000	     60.63292652	    -18.04018428	     38.41674419	     16.76144681	     87.72379052	      0.00000000	      0.00000000
     18.03000000	     32.38447843	    -11.81162247	    179.34604500	      0.35718968	      0.64339620	     -0.60530232	    102.41510250	     -4.89064214	     12.24198018	     91.34277864	      1.59423224	     23.69252642	      0.00000000	      0.00000000	     95.14123219	     -7.37639843	    -11.88770157	     89.68090616	      1.56522709	     26.19289542	      0.00000000	      0.00000000	    -35.66005015	    -10.47455066	     -7.05151329	     53.96952367	    -11.29758516	     38.75938287	     10.03814002	      6.22330758	      0.00000000	      0.00000000	     60.63366855	    -18.03373428	     38.41746718	     16.75796234	     87.72366246	      0.00000000	      0.00000000
     18.03500000	     32.42791029	    -11.84103179	    179.41080574	      0.35743648	      0.64387487	     -0.60501137	    102.43348958	     -5.02713064	     12.23109352	     91.23480924	      1.59234781	     23.63403421	      0.00000000	      0.00000000	     95.12167676	     -7.25248993	    -11.88418623	     89.51338016	      1.56230321	     26.09072147	      0.00000000	      0.00000000	    -35.64890328	    -10.45258198	     -7.12564519	     54.01358841	    -11.28778440	     38.70991061	     10.03035608	      6.20141251	      0.00000000	      0.00000000	     60.66837014	    -18.02598496	     38.42216191	     16.74607463	     87.72546909	      0.00000000	      0.00000000
     18.04000000	     32.43622026	    -11.87763800	    179.40500615	      0.35755600	      0.64419811	     -0.60478219	    102.42117718	     -5.03325628	     12.28632241	     91.16516126	      1.59113223	     23.57448686	      0.00000000	      0.00000000	     95.10033252	     -7.02212345	    -11.75950699	     89.34958439	      1.55944443	     26.17870617	      0.00000000	      0.00000000	    -35.63883209	    -10.47332743	     -7.14406725	     54.01975983	    -11.29158517	     38.69003920	     10.01801969	      6.18371320	      0.00000000	      0.00000000	     60.66617616	    -18.01612681	     38.42413929	     16.75846368	     87.72661595	      0.00000000	      0.00000000
     18.04500000	     32.45238353	    -11.91537510	    179.41619588	      0.35767370	      0.64458103	     -0.60455516	    102.41840813	     -5.07521974	     12.32071859	     91.08776801	      1.58978146	     23.49847295	      0.00000000	      0.00000000	     95.07280439	     -6.77985998	    -11.64841443	     89.16825767	      1.55627968	     26.26842656	      0.00000000	      0.00000000	    -35.62751372	    -10.48692534	     -7.18595439	     54.02974045	    -11.28781976	     38.69164533	     10.02757006	      6.17280346	      0.00000000	      0.00000000	     60.66065741	    -18.00738718	     38.42747317	     16.74910748	     87.72665424	      0.00000000	      0.00000000
